<svg id="visual" viewBox="0 0 1700 803" width="1700" height="803" xmlns="http://www.w3.org/2000/svg" xmlns:xlink="http://www.w3.org/1999/xlink" version="1.1"><g stroke-width="1" stroke-linejoin="bevel"><path d="M927.4 472.8L748.6 469.8L928.4 609.4Z" fill="#2678a2" stroke="#2678a2"></path><path d="M748.6 469.8L717.6 673.4L928.4 609.4Z" fill="#1f4477" stroke="#1f4477"></path><path d="M1109.3 450.8L926.4 328.2L927.4 472.8Z" fill="#2678a2" stroke="#2678a2"></path><path d="M927.4 472.8L926.4 328.2L748.6 469.8Z" fill="#1e4a7c" stroke="#1e4a7c"></path><path d="M565.7 321.2L592.7 514.8L748.6 469.8Z" fill="#1f6795" stroke="#1f6795"></path><path d="M748.6 469.8L592.7 514.8L717.6 673.4Z" fill="#1e5081" stroke="#1e5081"></path><path d="M576.7 803L784.6 803L717.6 673.4Z" fill="#1e6190" stroke="#1e6190"></path><path d="M717.6 673.4L784.6 803L928.4 609.4Z" fill="#1f4477" stroke="#1f4477"></path><path d="M784.6 803L904.4 803L928.4 609.4Z" fill="#1d5b8b" stroke="#1d5b8b"></path><path d="M926.4 328.2L724.6 296.2L748.6 469.8Z" fill="#1f6795" stroke="#1f6795"></path><path d="M592.7 514.8L582.7 642.4L717.6 673.4Z" fill="#297ea6" stroke="#297ea6"></path><path d="M1134.3 665.4L1109.3 450.8L928.4 609.4Z" fill="#1d5b8b" stroke="#1d5b8b"></path><path d="M928.4 609.4L1109.3 450.8L927.4 472.8Z" fill="#23729e" stroke="#23729e"></path><path d="M904.4 803L1134.3 665.4L928.4 609.4Z" fill="#1e5081" stroke="#1e5081"></path><path d="M724.6 296.2L565.7 321.2L748.6 469.8Z" fill="#1f4477" stroke="#1f4477"></path><path d="M592.7 514.8L388.8 622.4L582.7 642.4Z" fill="#1f6795" stroke="#1f6795"></path><path d="M1308.2 494.8L1127.3 341.2L1109.3 450.8Z" fill="#216d99" stroke="#216d99"></path><path d="M1109.3 450.8L1127.3 341.2L926.4 328.2Z" fill="#2678a2" stroke="#2678a2"></path><path d="M926.4 328.2L733.6 190.6L724.6 296.2Z" fill="#1e5081" stroke="#1e5081"></path><path d="M921.4 155.6L733.6 190.6L926.4 328.2Z" fill="#2678a2" stroke="#2678a2"></path><path d="M724.6 296.2L733.6 190.6L565.7 321.2Z" fill="#1d5586" stroke="#1d5586"></path><path d="M582.7 642.4L576.7 803L717.6 673.4Z" fill="#1e4a7c" stroke="#1e4a7c"></path><path d="M388.8 622.4L576.7 803L582.7 642.4Z" fill="#1f4477" stroke="#1f4477"></path><path d="M1124.3 199.6L921.4 155.6L926.4 328.2Z" fill="#297ea6" stroke="#297ea6"></path><path d="M904.4 803L1148.3 803L1134.3 665.4Z" fill="#1e4a7c" stroke="#1e4a7c"></path><path d="M1134.3 665.4L1308.2 494.8L1109.3 450.8Z" fill="#1f4477" stroke="#1f4477"></path><path d="M1127.3 341.2L1124.3 199.6L926.4 328.2Z" fill="#2678a2" stroke="#2678a2"></path><path d="M1345.2 348.2L1124.3 199.6L1127.3 341.2Z" fill="#1d5586" stroke="#1d5586"></path><path d="M355.8 490.8L388.8 622.4L592.7 514.8Z" fill="#1d5b8b" stroke="#1d5b8b"></path><path d="M1361.2 628.4L1308.2 494.8L1134.3 665.4Z" fill="#1d5b8b" stroke="#1d5b8b"></path><path d="M565.7 321.2L355.8 490.8L592.7 514.8Z" fill="#1f4477" stroke="#1f4477"></path><path d="M593.7 0L544.7 133.6L733.6 190.6Z" fill="#1e4a7c" stroke="#1e4a7c"></path><path d="M733.6 190.6L544.7 133.6L565.7 321.2Z" fill="#1e5081" stroke="#1e5081"></path><path d="M565.7 321.2L339.8 329.2L355.8 490.8Z" fill="#1e6190" stroke="#1e6190"></path><path d="M1349.2 803L1361.2 628.4L1134.3 665.4Z" fill="#1d5b8b" stroke="#1d5b8b"></path><path d="M395.8 193.6L339.8 329.2L565.7 321.2Z" fill="#1f4477" stroke="#1f4477"></path><path d="M1477.1 500.8L1345.2 348.2L1308.2 494.8Z" fill="#1e5081" stroke="#1e5081"></path><path d="M1308.2 494.8L1345.2 348.2L1127.3 341.2Z" fill="#23729e" stroke="#23729e"></path><path d="M202.9 663.4L357.8 803L388.8 622.4Z" fill="#1f4477" stroke="#1f4477"></path><path d="M388.8 622.4L357.8 803L576.7 803Z" fill="#1f6795" stroke="#1f6795"></path><path d="M202.9 663.4L388.8 622.4L355.8 490.8Z" fill="#1e5081" stroke="#1e5081"></path><path d="M1096.3 0L906.4 0L921.4 155.6Z" fill="#1f6795" stroke="#1f6795"></path><path d="M921.4 155.6L737.6 0L733.6 190.6Z" fill="#1e4a7c" stroke="#1e4a7c"></path><path d="M1096.3 0L921.4 155.6L1124.3 199.6Z" fill="#1e5081" stroke="#1e5081"></path><path d="M906.4 0L737.6 0L921.4 155.6Z" fill="#1d5b8b" stroke="#1d5b8b"></path><path d="M544.7 133.6L395.8 193.6L565.7 321.2Z" fill="#23729e" stroke="#23729e"></path><path d="M356.8 0L395.8 193.6L544.7 133.6Z" fill="#1f4477" stroke="#1f4477"></path><path d="M1148.3 803L1349.2 803L1134.3 665.4Z" fill="#1f6795" stroke="#1f6795"></path><path d="M737.6 0L593.7 0L733.6 190.6Z" fill="#216d99" stroke="#216d99"></path><path d="M1318.2 159.6L1096.3 0L1124.3 199.6Z" fill="#216d99" stroke="#216d99"></path><path d="M1345.2 348.2L1318.2 159.6L1124.3 199.6Z" fill="#23729e" stroke="#23729e"></path><path d="M1361.2 628.4L1477.1 500.8L1308.2 494.8Z" fill="#23729e" stroke="#23729e"></path><path d="M1345.2 348.2L1493.1 163.6L1318.2 159.6Z" fill="#2678a2" stroke="#2678a2"></path><path d="M1472.1 637.4L1477.1 500.8L1361.2 628.4Z" fill="#1e5081" stroke="#1e5081"></path><path d="M1349.2 803L1472.1 637.4L1361.2 628.4Z" fill="#216d99" stroke="#216d99"></path><path d="M184.9 487.8L202.9 663.4L355.8 490.8Z" fill="#1d5586" stroke="#1d5586"></path><path d="M215.9 293.2L184.9 487.8L339.8 329.2Z" fill="#216d99" stroke="#216d99"></path><path d="M339.8 329.2L184.9 487.8L355.8 490.8Z" fill="#1e4a7c" stroke="#1e4a7c"></path><path d="M226.9 193.6L339.8 329.2L395.8 193.6Z" fill="#216d99" stroke="#216d99"></path><path d="M226.9 193.6L215.9 293.2L339.8 329.2Z" fill="#23729e" stroke="#23729e"></path><path d="M1700 477.8L1510.1 357.2L1477.1 500.8Z" fill="#1e5081" stroke="#1e5081"></path><path d="M1477.1 500.8L1510.1 357.2L1345.2 348.2Z" fill="#23729e" stroke="#23729e"></path><path d="M356.8 0L226.9 193.6L395.8 193.6Z" fill="#1d5586" stroke="#1d5586"></path><path d="M0 340.2L0 515.8L184.9 487.8Z" fill="#1f4477" stroke="#1f4477"></path><path d="M1349.2 803L1504.1 803L1472.1 637.4Z" fill="#1e5081" stroke="#1e5081"></path><path d="M1700 651.4L1700 477.8L1477.1 500.8Z" fill="#1d5b8b" stroke="#1d5b8b"></path><path d="M0 629.4L163.9 803L202.9 663.4Z" fill="#23729e" stroke="#23729e"></path><path d="M202.9 663.4L163.9 803L357.8 803Z" fill="#1f6795" stroke="#1f6795"></path><path d="M593.7 0L356.8 0L544.7 133.6Z" fill="#1d5b8b" stroke="#1d5b8b"></path><path d="M1318.2 159.6L1338.2 0L1096.3 0Z" fill="#1d5586" stroke="#1d5586"></path><path d="M1493.1 163.6L1338.2 0L1318.2 159.6Z" fill="#1f6795" stroke="#1f6795"></path><path d="M1510.1 357.2L1493.1 163.6L1345.2 348.2Z" fill="#1d5b8b" stroke="#1d5b8b"></path><path d="M0 340.2L184.9 487.8L215.9 293.2Z" fill="#2678a2" stroke="#2678a2"></path><path d="M184.9 487.8L0 629.4L202.9 663.4Z" fill="#2678a2" stroke="#2678a2"></path><path d="M0 340.2L215.9 293.2L0 178.6Z" fill="#216d99" stroke="#216d99"></path><path d="M0 515.8L0 629.4L184.9 487.8Z" fill="#2678a2" stroke="#2678a2"></path><path d="M356.8 0L178.9 0L226.9 193.6Z" fill="#1d5586" stroke="#1d5586"></path><path d="M1700 123.6L1501.1 0L1493.1 163.6Z" fill="#216d99" stroke="#216d99"></path><path d="M1493.1 163.6L1501.1 0L1338.2 0Z" fill="#1d5b8b" stroke="#1d5b8b"></path><path d="M0 178.6L215.9 293.2L226.9 193.6Z" fill="#2678a2" stroke="#2678a2"></path><path d="M1700 651.4L1477.1 500.8L1472.1 637.4Z" fill="#1e5081" stroke="#1e5081"></path><path d="M1510.1 357.2L1700 290.2L1493.1 163.6Z" fill="#1d5b8b" stroke="#1d5b8b"></path><path d="M1504.1 803L1700 651.4L1472.1 637.4Z" fill="#1d5586" stroke="#1d5586"></path><path d="M0 629.4L0 803L163.9 803Z" fill="#2678a2" stroke="#2678a2"></path><path d="M1700 477.8L1700 290.2L1510.1 357.2Z" fill="#23729e" stroke="#23729e"></path><path d="M1504.1 803L1700 803L1700 651.4Z" fill="#1d5586" stroke="#1d5586"></path><path d="M178.9 0L0 178.6L226.9 193.6Z" fill="#1f4477" stroke="#1f4477"></path><path d="M1700 290.2L1700 123.6L1493.1 163.6Z" fill="#216d99" stroke="#216d99"></path><path d="M178.9 0L0 0L0 178.6Z" fill="#2678a2" stroke="#2678a2"></path><path d="M1700 123.6L1700 0L1501.1 0Z" fill="#1f6795" stroke="#1f6795"></path></g></svg>